<svg id="Layer_5" enable-background="new 0 0 64 64" height="512" viewBox="0 0 64 64" width="512" xmlns="http://www.w3.org/2000/svg" xmlns:xlink="http://www.w3.org/1999/xlink"><linearGradient id="SVGID_1_" gradientUnits="userSpaceOnUse" x1="32.023" x2="32.023" y1="63" y2="1"><stop offset="0" stop-color="#9f2fff"/><stop offset="1" stop-color="#0bb1d3"/></linearGradient><path d="m52 24c-6.065 0-11 4.935-11 11 0 4.932 3.319 9.253 8 10.579v4.421h2v8c0 1.654-1.346 3-3 3h-8c-1.654 0-3-1.346-3-3v-12c0-2.757-2.243-5-5-5s-5 2.243-5 5v12c0 1.654-1.346 3-3 3s-3-1.346-3-3v-25.147c.54-.149 1.047-.405 1.475-.782l12.679-11.219c1.491-1.319 2.589-2.994 3.222-4.853h8.809c.414 1.161 1.514 2 2.816 2 1.654 0 3-1.346 3-3s-1.346-3-3-3c-1.302 0-2.402.839-2.816 2h-8.331c.086-.573.146-1.153.146-1.744 0-4.941-3.139-9.365-7.634-10.758-3.897-1.209-8.102-.176-10.973 2.695l-.377.378-.363-.378c-2.871-2.869-7.074-3.902-10.973-2.695-4.495 1.393-7.635 5.816-7.635 10.818 0 3.263 1.402 6.374 3.846 8.537l12.681 11.219c.414.367.906.618 1.429.769v25.16c0 2.757 2.243 5 5 5s5-2.243 5-5v-12c0-1.654 1.346-3 3-3s3 1.346 3 3v12c0 2.757 2.243 5 5 5h8c2.757 0 5-2.243 5-5v-8h2v-4.421c4.681-1.326 8-5.647 8-10.579-.001-6.065-4.936-11-11.001-11zm-2-10c.552 0 1 .448 1 1s-.448 1-1 1-1-.448-1-1 .448-1 1-1zm-40.729-10.593c.882-.273 1.782-.406 2.674-.406 2.327 0 4.591.907 6.286 2.599l1.753 1.83 1.823-1.823c2.344-2.344 5.778-3.188 8.967-2.199 3.665 1.135 6.226 4.774 6.226 8.907 0 .57-.063 1.132-.164 1.685h-8.336l-3.613-4.817-3.698 6.472-3.058-8.152-5.131 10.261-3.382-6.764h-6.485c.464-3.548 2.854-6.575 6.138-7.593zm-3.054 15.947c-1.832-1.62-2.944-3.889-3.133-6.354h5.298l4.618 9.236 4.869-9.738 2.942 7.848 4.302-7.528 2.387 3.182h8.738c-.542 1.269-1.354 2.421-2.41 3.354l-12.679 11.219c-.623.551-1.631.551-2.252 0zm45.783 14.646c-1.654 0-3 1.346-3 3v1.99c-1.234-.928-2-2.396-2-3.99 0-2.757 2.243-5 5-5s5 2.243 5 5c0 1.594-.766 3.062-2 3.99v-1.99c0-1.654-1.346-3-3-3zm1 14h-2v-11c0-.552.448-1 1-1s1 .448 1 1zm2-4.522v-2.18c2.413-1.15 4-3.587 4-6.298 0-3.859-3.141-7-7-7s-7 3.141-7 7c0 2.71 1.587 5.147 4 6.298v2.18c-3.538-1.253-6-4.637-6-8.478 0-4.963 4.037-9 9-9s9 4.037 9 9c0 3.841-2.462 7.225-6 8.478z" fill="url(#SVGID_1_)"/></svg>